PathFileType	4	(X/Y/Z)	pose_F01_0-96.trc
DataRate	CameraRate	NumFrames	NumMarkers	Units	OrigDataRate	OrigDataStartFrame	OrigNumFrames
30	30	13	21	m	30	80	96
Frame#	Time	CHip			RHip			RKnee			RAnkle			RBigToe			RSmallToe			RHeel			LHip			LKnee			LAnkle			LBigToe			LSmallToe			LHeel			Neck			Nose			RShoulder			RElbow			RWrist			LShoulder			LElbow			LWrist			
		X1	Y1	Z1	X2	Y2	Z2	X3	Y3	Z3	X4	Y4	Z4	X5	Y5	Z5	X6	Y6	Z6	X7	Y7	Z7	X8	Y8	Z8	X9	Y9	Z9	X10	Y10	Z10	X11	Y11	Z11	X12	Y12	Z12	X13	Y13	Z13	X14	Y14	Z14	X15	Y15	Z15	X16	Y16	Z16	X17	Y17	Z17	X18	Y18	Z18	X19	Y19	Z19	X20	Y20	Z20	X21	Y21	Z21	
80	2.6666666666666665	-0.25937796533255875	1.846031908129784	-0.6653645540868479	-0.2716921853267473	1.8418502497135218	-0.6023311434561948																-0.24625606296397695	1.8488243031263114	-0.7273948442260907	-0.27507519411176873	1.7126484647367695	-0.5486432768635132													-0.26420528165756	1.995063788444536	-0.6902131240766236	-0.25635746107991353	2.041147568075544	-0.6468161317651773	-0.2823574851217838	1.9933157135161617	-0.6022429977276003	-0.30167530230653417	1.9463217589219775	-0.46557515889459933	-0.2859778812892533	1.9088628948807844	-0.569185260846407	-0.24495729045839287	1.9983778247201949	-0.7725519059901949	-0.20336404915612608	2.0017169790810505	-0.8558326097773671	-0.2248692666938942	2.059899775894323	-0.796770190931288
81	2.7	-0.25738822615771106	1.8507298776637338	-0.6680056311066527	-0.26963572088441573	1.8468556846927635	-0.6050423498315646																-0.24591152687821155	1.8500197395514602	-0.7286319771992096	-0.27507519411176873	1.7126484647367695	-0.5486432768635132													-0.264189235612633	1.994823252265991	-0.690257721425381	-0.2551979990114138	2.04043509253964	-0.6521316531429734	-0.2823401743438649	1.9931632384485156	-0.6022330644094944	-0.29866930140790204	1.9463819054963332	-0.4645404607113774	-0.28203708759145074	1.9088314931339825	-0.5734923252144865	-0.24503952794272985	1.9979153474016187	-0.7726376659017048	-0.20258905884706196	2.0076563867231627	-0.8539797574203098	-0.22192092031888752	2.0642461950025144	-0.7975111143282315
82	2.7333333333333334	-0.2569295652430267	1.8500664839923662	-0.6697757572071374	-0.26917917406958686	1.846260358526319	-0.6067832458661739																-0.2457032526628311	1.8489983605986176	-0.7298331305968127	-0.27507519411176873	1.7126484647367695	-0.5486432768635132													-0.2620577601671363	1.995082355429344	-0.692398057224022	-0.2551218544348405	2.0415853983524395	-0.6520880970989208	-0.2802809154730097	1.9933158840217258	-0.6044277207467902	-0.29662881907842625	1.9455312772597153	-0.4663357485428215	-0.28299212684592073	1.909252459514085	-0.5682972426213596	-0.24504528652494165	1.9976601600264308	-0.7726161178314571	-0.20039304071126907	2.008703413314072	-0.856588856826921	-0.22401228827552014	2.064178496208629	-0.7949084824967079
83	2.7666666666666666	-0.25647090432834224	1.8494030903209984	-0.6715458833076221	-0.268722627254758	1.8456650323598744	-0.6085241419007832																-0.24549497844745066	1.8479769816457752	-0.7310342839944156	-0.27507519411176873	1.7126484647367695	-0.5486432768635132													-0.2619815517617471	1.993726390322099	-0.6922149095505465	-0.2552077337751908	2.04291583290313	-0.6524107880245216	-0.2802531752968567	1.9933102191480723	-0.6044611003509807	-0.2954911657221036	1.9451560339820229	-0.463296102799803	-0.28299524875712173	1.9072410646374343	-0.5680301846739441	-0.24504104181329806	1.9976692420686322	-0.7727724659725398	-0.20255702967479974	2.0073561095118717	-0.8648639221528411	-0.2240724323990731	2.060137854021245	-0.8046018927179602
84	2.8	-0.25601224341365786	1.8487396966496308	-0.6733160094081069	-0.2682660804399291	1.84506970619343	-0.6102650379353926																-0.24528670423207025	1.8469556026929328	-0.7322354373920186	-0.27507519411176873	1.7126484647367695	-0.5486432768635132													-0.262002715074595	1.9936311141298098	-0.6922247470976308	-0.25393852333778516	2.0432390143149557	-0.6576182303802531	-0.28036398569305654	1.9922473235008389	-0.604467212572866	-0.29357686166459585	1.945234463665235	-0.4652941277112288	-0.28093564661274695	1.9077539375595736	-0.5702823872628707	-0.24583540067535278	1.996303512811698	-0.7753973550061294	-0.20175833941886948	2.0091208220719503	-0.8732739288587296	-0.22417903050845858	2.0619193148974033	-0.8052999217083178
85	2.8333333333333335	-0.2566102798558937	1.8451467804537982	-0.6727352710764776	-0.2689056249178317	1.8413828340169238	-0.6096454982843025																-0.2450784300166898	1.8459342237400902	-0.7334365907896216	-0.27507519411176873	1.7126484647367695	-0.5486432768635132													-0.26195964795834153	1.9951765484495734	-0.6925626212601584	-0.2547858140135089	2.0433754439141087	-0.6607262369318025	-0.28039856477815883	1.9933650350006675	-0.6048562534641991	-0.29353102926130903	1.9451123705566031	-0.4654062199791309	-0.2758979436129346	1.9087194970914492	-0.5716138684462847	-0.24352675825712616	1.998732717632806	-0.7778268913020674	-0.20065523690984688	2.012201313682681	-0.8701486588097859	-0.22790438317238812	2.06337170316414	-0.7981755974490657
86	2.8666666666666667	-0.2569769546955244	1.8473324263550823	-0.6762876864656844	-0.26639812494351395	1.8440199487756306	-0.6123586697538889																-0.24229652527415163	1.846542485012934	-0.7360137835474735	-0.27507519411176873	1.7126484647367695	-0.5486432768635132													-0.25988915696975207	1.9952660900165657	-0.6947249036203998	-0.25261475650972476	2.0448125819677174	-0.6628999143924148	-0.28029683052541526	1.9921157096548388	-0.604606584646021	-0.29359920939588896	1.9464874231097884	-0.4658076573697894	-0.28076098197251964	1.9087465129847463	-0.5701917272272097	-0.24355006995589434	1.9991179200355438	-0.7778522887138422	-0.20398603294949189	2.009543405322837	-0.8710510706206915	-0.22742680480160915	2.0643911742442063	-0.7967057904101882
87	2.9	-0.25701493794228136	1.8478053011850593	-0.6762598778403163	-0.2664512878565053	1.8444247927908883	-0.6123338197568133																-0.24249534139247636	1.845547003845186	-0.7358158529676182	-0.27507519411176873	1.7126484647367695	-0.5486432768635132													-0.2620125179907062	1.9964608973576832	-0.6930063567344246	-0.2525246430664811	2.0475159842055266	-0.6630935202903423	-0.2802704850172302	1.994521141649654	-0.6049239812031136	-0.29358969171279603	1.946305886067979	-0.46572311910007674	-0.2789263845017953	1.9087914866826898	-0.5725418273171842	-0.24370922803094025	1.9993819980252026	-0.7782619396418712	-0.20143905030722034	1.9985797493790483	-0.8806640499651097	-0.21810991819474831	2.0558420830874415	-0.8136966223004051
88	2.933333333333333	-0.25742349854324276	1.8478023483338928	-0.6762284442382779	-0.2688370477855555	1.844389506959085	-0.6101859267135876																-0.24362855080892273	1.8478434325268562	-0.7387854803766751	-0.27507519411176873	1.7126484647367695	-0.5486432768635132													-0.2621171940246243	1.996309742709341	-0.6930625916361776	-0.25254174075537095	2.0490139438701824	-0.6634886846766115	-0.2824653928661787	1.9931783608908644	-0.602735388670244	-0.2955316367695012	1.9464287903689281	-0.46356222345407483	-0.2808070406065632	1.9087225065886408	-0.5703127878363955	-0.24464011502484853	1.9997421091318908	-0.7815431805662441	-0.20572081546837567	1.9744530564547558	-0.8930174704653728	-0.22105994113066577	2.0302324799538622	-0.8509561553965183
89	2.966666666666667	-0.258387402506461	1.8493288208269651	-0.671053742545237	-0.26847168305047064	1.8468328734987878	-0.6102402976020854																-0.2446980345327253	1.8485884517422393	-0.7337612375128594	-0.27507519411176873	1.7126484647367695	-0.5486432768635132													-0.26210490549029886	1.9961928866972498	-0.6929357088687697	-0.2525141671397753	2.049328487834527	-0.6634026534415167	-0.2815662391683283	1.9931138179154462	-0.5996204395411383	-0.29756482482778024	1.9462315123277139	-0.4614419740516291	-0.27893550910301995	1.9074939422593238	-0.5724292153385513	-0.2422357327887069	1.9998847442040404	-0.7834627132422493	-0.21151291815175424	1.9545478815950394	-0.9006166321091164	-0.21625029465190193	1.997765384681829	-0.8493804601049003
90	3.0	-0.2574935452063641	1.8454013211620288	-0.667478016849556	-0.2700813081320799	1.8412387946341586	-0.6043112058508798																-0.2448190027094208	1.846042210760831	-0.7333168080699346	-0.27507519411176873	1.7126484647367695	-0.5486432768635132													-0.26426780820846835	1.9958912149083452	-0.6907675561750177	-0.25361722403478765	2.051742581104448	-0.6585740375091027	-0.281592509551665	1.9931323179114668	-0.5995146403406478	-0.2995378568410594	1.9423184004053982	-0.4584575106079947	-0.28493683033936584	1.9105772836377615	-0.5661689105413563	-0.2443220522840681	2.0008635742693097	-0.7813536919212104	-0.23241879954778477	1.9653277197096255	-0.8689981087219918	-0.22135749104078106	1.9569434249465452	-0.8916709332935014
91	3.033333333333333	-0.2564548653224092	1.8435577361449065	-0.6641914638746176	-0.2696278540568764	1.839635820317349	-0.6040730328262021																-0.24560468514320322	1.8460814554368157	-0.7284427784199269	-0.27507519411176873	1.7126484647367695	-0.5486432768635132													-0.26341734926470234	1.9960765376886933	-0.6876636659304481	-0.2548765089474959	2.0528905324222833	-0.6538247121399741	-0.28481571597535865	1.9919073102099434	-0.59220353623788	-0.30352645717456145	1.9430723774380083	-0.4544657146364301	-0.28403241059551126	1.9099406017213025	-0.5628718380297274	-0.24146185312904747	2.000946482729378	-0.7807640907265175	-0.22020450145402304	1.9560355974813313	-0.8996656914847316	-1.0706183874097346	1.8124828601634229	-0.008117783348269642
92	3.066666666666667	-0.25941275225820565	1.8428441099613364	-0.658293221677787	-0.2729084970122264	1.8393570223872764	-0.5965280131864071																-0.24639036757698562	1.8461207001128002	-0.7235687487699192	-0.27507519411176873	1.7126484647367695	-0.5486432768635132													-0.2654098477796935	1.9947896752126022	-0.685138459853734	-0.25603306493244615	2.0526981246967684	-0.6486295432211812	-0.2847321793034469	1.9933110422007398	-0.5919679343814691	-0.3064491729541637	1.9427764955127056	-0.4470752533688693	-0.2861760650664222	1.909474720445158	-0.5607384927579028	-0.24128775361101382	2.0000616687407438	-0.7805370296985817	-0.21745609541139801	1.9461087764220306	-0.8985230250668552	-1.0493390824169055	1.7804137880664113	-0.04283406203293258
